<?xml version="1.0" encoding="utf-8"?>
<!-- Generator: Adobe Illustrator 17.0.2, SVG Export Plug-In . SVG Version: 6.00 Build 0)  -->
<!DOCTYPE svg PUBLIC "-//W3C//DTD SVG 1.1//EN" "http://www.w3.org/Graphics/SVG/1.1/DTD/svg11.dtd">
<svg version="1.1" id="Layer_1" xmlns="http://www.w3.org/2000/svg" xmlns:xlink="http://www.w3.org/1999/xlink" x="0px" y="0px"
	 width="20px" height="27px" viewBox="0 0 20 27" enable-background="new 0 0 20 27" xml:space="preserve">
<g>
	<g>
		<path fill="#F6E41D" d="M1.563,22.886v-0.892c0.001-1.057,0.855-1.916,1.904-1.916h16.47l0.006-19.411h-1.529v0.009H4.351
			c-2.376,0-4.31,1.948-4.31,4.339v16.904h0.004c-0.001,0.026-0.004,0.05-0.004,0.076v0.892c0,1.902,1.537,3.448,3.424,3.448h16.47
			v-1.532H3.465C2.416,24.802,1.563,23.943,1.563,22.886z M4.858,2.207h13.556v16.34H4.858V2.207z M1.564,5.015
			c0-1.185,0.735-2.2,1.771-2.611v16.15c-0.653,0.025-1.26,0.233-1.771,0.576V5.015z M3.768,21.659c-0.421,0-0.76,0.343-0.76,0.766
			c0,0.424,0.341,0.765,0.76,0.765h16.191v-1.531H3.768z"/>
	</g>
</g>
</svg>
