<?xml version="1.0" encoding="utf-8"?>
<!-- Generator: Adobe Illustrator 17.0.2, SVG Export Plug-In . SVG Version: 6.00 Build 0)  -->
<!DOCTYPE svg PUBLIC "-//W3C//DTD SVG 1.1//EN" "http://www.w3.org/Graphics/SVG/1.1/DTD/svg11.dtd">
<svg version="1.1" id="Layer_1" xmlns="http://www.w3.org/2000/svg" xmlns:xlink="http://www.w3.org/1999/xlink" x="0px" y="0px"
	 width="2048px" height="1536px" viewBox="0 0 2048 1536" enable-background="new 0 0 2048 1536" xml:space="preserve">
<g>
	<circle fill="#F7E33B" cx="1023.975" cy="768" r="54"/>
	<path fill="#F7E33B" d="M1131.582,702.514c4.513-4.826,7.281-11.305,7.281-18.434c0-14.912-12.088-27-27-27
		c-6.683,0-12.794,2.433-17.509,6.455C1074.245,649.944,1050.02,642,1023.975,642c-69.477,0-126,56.523-126,126s56.523,126,126,126
		s126-56.523,126-126C1149.975,744.033,1143.246,721.609,1131.582,702.514z M1023.975,887.149
		c-65.699,0-119.149-53.45-119.149-119.149s53.45-119.149,119.149-119.149c24.274,0,46.872,7.303,65.724,19.818
		c-3.045,4.371-4.835,9.681-4.835,15.411c0,14.912,12.088,27,27,27c5.287,0,10.216-1.526,14.38-4.152
		c10.713,17.871,16.881,38.764,16.881,61.072C1143.124,833.699,1089.674,887.149,1023.975,887.149z"/>
</g>
</svg>
