<?xml version="1.0" encoding="utf-8"?>
<!-- Generator: Adobe Illustrator 17.0.2, SVG Export Plug-In . SVG Version: 6.00 Build 0)  -->
<!DOCTYPE svg PUBLIC "-//W3C//DTD SVG 1.1//EN" "http://www.w3.org/Graphics/SVG/1.1/DTD/svg11.dtd">
<svg version="1.1" id="Layer_1" xmlns="http://www.w3.org/2000/svg" xmlns:xlink="http://www.w3.org/1999/xlink" x="0px" y="0px"
	 width="107px" height="110px" viewBox="0 0 107 110" enable-background="new 0 0 107 110" xml:space="preserve">
<g>
	<g>
		<path fill="#7CC4A7" d="M56.102,0.131c13.296,0,25.66,4.644,35.086,11.905c0.925,0.768,1.233,2.001,0.617,2.781
			c-0.925,0.919-2.165,1.082-2.932,0.302C79.905,8.173,68.623,4.146,56.102,4.146c-28.592,0-52.081,22.728-52.081,50.703
			c0,28.277,23.489,50.993,52.081,50.993c12.364,0,23.646-4.014,32.613-10.974c0.925-0.617,2.165-0.617,2.938,0.315
			c0.768,0.768,0.459,2.014-0.466,2.781c-9.74,7.261-21.79,11.905-35.086,11.905C25.194,109.705,0,85.14,0,54.849
			C0,24.86,25.194,0.131,56.102,0.131z"/>
	</g>
	<path fill="#DADCE0" d="M103.13,41.925c-2.146,0-3.826,1.68-3.826,3.826v5.921h-7.224V45.75c0-2.146-1.699-3.826-3.863-3.826
		c-2.146,0-3.832,1.68-3.832,3.826v19.531c0,2.146,1.686,3.826,3.832,3.826c2.133,0,3.863-1.718,3.863-3.826v-5.952h7.224v5.952
		c0,2.146,1.68,3.826,3.826,3.826c2.133,0,3.87-1.718,3.87-3.826V45.75C107,43.605,105.301,41.925,103.13,41.925z"/>
</g>
</svg>
